# xmcd CD database file
#
# Track frame offsets:
#	150
#	9005
#	24802
#	33405
#	46992
#	60962
#	72882
#	81302
#	95862
#	108275
#	113492
#	123765
#	132002
#	154132
#	162552
#	174125
#	184050
#	192737
#	204590
#	212000
#	223962
#	229457
#	235150
#	249100
#
# Disc length: 3542 seconds
#
# Revision: 0
# Processed by: cddbd v1.5.1PL2 Copyright (c) Steve Scherf et al.
# Submitted via: CDex 1.51
#
DISCID=3e0dd418
DTITLE=La Camerata vocale - La Camerata vocale
DYEAR=1993
DGENRE=Noël
TTITLE0=Veni, veni Emmanuel
TTITLE1=Les anges dans nos campagnes (Camerata vocale)
TTITLE2=Noël angevin 
TTITLE3=Ô Dieu! Que n'étais-je en vie
TTITLE4=Mary Had a Baby
TTITLE5=Go, Tell It on the Mountain
TTITLE6=Lieb Nachtigall, wach auf
TTITLE7=Wiegenlied des Hirten
TTITLE8=Joseph, lieber Joseph Mein
TTITLE9=Triumfy krola nibieskiego
TTITLE10=Wsrod Nocnej Ciszy
TTITLE11=Deck the Hall (Camerata Vocale)
TTITLE12=In dulci jubilo
TTITLE13=Ça, messires
TTITLE14=Célébrons la naissance
TTITLE15=Dans cette étable (Camerata vocale)
TTITLE16=Retentissez, sonnez
TTITLE17=En natus est Emmanuel
TTITLE18=Du hast O Jesulein
TTITLE19=O Jesulein sûss
TTITLE20=Przybiezeli do Betlejem
TTITLE21=Jezus malusienki
TTITLE22=Gdy sie Chrystus rodzi
TTITLE23=Cicha noc
EXTD=YEAR: 1993
EXTT0=
EXTT1=
EXTT2=
EXTT3=
EXTT4=
EXTT5=
EXTT6=
EXTT7=
EXTT8=
EXTT9=
EXTT10=
EXTT11=
EXTT12=
EXTT13=
EXTT14=
EXTT15=
EXTT16=
EXTT17=
EXTT18=
EXTT19=
EXTT20=
EXTT21=
EXTT22=
EXTT23=
PLAYORDER=
